<svg width="18" height="18" viewBox="0 0 18 18" fill="none" xmlns="http://www.w3.org/2000/svg">
<path fill-rule="evenodd" clip-rule="evenodd" d="M1.30543 0.223977C1.0068 -0.074659 0.522613 -0.074659 0.223977 0.223977C-0.074659 0.522613 -0.074659 1.0068 0.223977 1.30543L7.91854 9L0.223977 16.6946C-0.074659 16.9932 -0.074659 17.4774 0.223977 17.776C0.522613 18.0747 1.0068 18.0747 1.30543 17.776L9 10.0815L16.6946 17.776C16.9932 18.0747 17.4774 18.0747 17.776 17.776C18.0747 17.4774 18.0747 16.9932 17.776 16.6946L10.0815 9L17.776 1.30543C18.0747 1.0068 18.0747 0.522613 17.776 0.223977C17.4774 -0.074659 16.9932 -0.074659 16.6946 0.223977L9 7.91854L1.30543 0.223977Z" fill="current"/>
</svg>
